<svg width="24" height="23" viewBox="0 0 24 23" fill="none" xmlns="http://www.w3.org/2000/svg">
<path d="M12 0C5.3832 0 0 4.8448 0 10.8C0 12.8816 0.6584 14.898 1.9072 16.6416C1.6708 19.2564 1.0372 21.1976 0.1172 22.1172C0.0579665 22.1765 0.0188642 22.2529 0.00541619 22.3357C-0.00803186 22.4184 0.00485396 22.5033 0.0422536 22.5783C0.0796533 22.6533 0.139677 22.7147 0.213846 22.7538C0.288015 22.7928 0.372581 22.8076 0.4556 22.796C0.6176 22.7732 4.3808 22.2316 7.1028 20.6604C8.6484 21.284 10.2948 21.6 12 21.6C18.6168 21.6 24 16.7552 24 10.8C24 4.8448 18.6168 0 12 0ZM6.4 12.4C5.5176 12.4 4.8 11.6824 4.8 10.8C4.8 9.9176 5.5176 9.2 6.4 9.2C7.2824 9.2 8 9.9176 8 10.8C8 11.6824 7.2824 12.4 6.4 12.4ZM12 12.4C11.1176 12.4 10.4 11.6824 10.4 10.8C10.4 9.9176 11.1176 9.2 12 9.2C12.8824 9.2 13.6 9.9176 13.6 10.8C13.6 11.6824 12.8824 12.4 12 12.4ZM17.6 12.4C16.7176 12.4 16 11.6824 16 10.8C16 9.9176 16.7176 9.2 17.6 9.2C18.4824 9.2 19.2 9.9176 19.2 10.8C19.2 11.6824 18.4824 12.4 17.6 12.4Z" fill="black"/>
</svg>
