<svg width="22" height="20" viewBox="0 0 22 20" fill="none" xmlns="http://www.w3.org/2000/svg">
<path fill-rule="evenodd" clip-rule="evenodd" d="M16.0824 3.20078L15.9734 3.00566L15.9732 3.00576C16.1413 2.38752 15.9596 1.92379 15.6433 1.57934C15.2005 1.09699 14.6785 0.878302 14.6254 0.041998C14.6248 0.0325124 14.6213 0.0234432 14.6152 0.0161365C14.6092 0.0088299 14.6009 0.00367528 14.5917 0.00143794C14.5825 -0.000962888 14.5728 -0.000345146 14.564 0.0031996C14.5552 0.00674435 14.5478 0.0130275 14.5428 0.0211179C14.0128 0.86923 13.8703 1.5984 14.1046 2.20531C14.2942 2.69654 14.6984 3.05491 15.1086 3.35126L15.108 3.3515L15.239 3.58646C15.2497 3.60566 15.245 3.62933 15.2279 3.6431C14.7482 4.02753 14.441 4.61832 14.441 5.28091C14.441 6.43958 15.3803 7.37889 16.539 7.37889C17.924 7.37889 18.9144 6.06576 18.5687 4.74849C18.5661 4.73896 18.5668 4.72884 18.5706 4.71974C18.5745 4.71063 18.5812 4.70308 18.5899 4.69829L18.9015 4.5216L18.9011 4.52107C19.4056 4.48099 19.9371 4.38485 20.3544 4.06363C20.8699 3.66681 21.127 2.96976 21.1147 1.96968C21.1147 1.9602 21.1116 1.95098 21.106 1.94338C21.1003 1.93579 21.0923 1.93023 21.0832 1.92753C21.0742 1.92463 21.0644 1.92474 21.0555 1.92782C21.0465 1.93091 21.0387 1.93682 21.0334 1.94467C20.5534 2.6316 19.9939 2.54721 19.3649 2.72928C18.9157 2.85931 18.5195 3.16104 18.3419 3.77664L18.3418 3.77649L18.1515 3.88421C18.1427 3.88928 18.1323 3.89116 18.1223 3.88954C18.1122 3.88791 18.1031 3.88288 18.0963 3.87528C17.6092 3.336 16.8686 3.0767 16.1301 3.22296C16.1208 3.22483 16.1112 3.22369 16.1026 3.2197C16.094 3.21571 16.0869 3.20908 16.0824 3.20078ZM9.09143 18.0037C9.1593 18.4937 8.85844 18.957 8.42289 19.0333C7.98729 19.1096 7.65359 18.7538 7.50753 18.2813L6.76127 15.8677C6.62994 15.4428 6.35846 15.1121 5.96246 15.1314C5.6109 15.1485 5.26636 15.3501 5.15654 15.7253L4.33252 18.5409C4.10188 19.329 3.40382 19.2346 3.06225 18.8732C2.79129 18.5865 2.83113 18.1457 2.89401 17.7453L3.42393 14.3693C3.50764 13.8359 3.55516 13.3841 3.62217 12.8385L3.88012 10.7386C3.9287 10.3433 3.69143 10.017 3.3778 9.8087C2.14996 8.99337 1.18516 8.3615 0.153447 7.13189C-0.040041 6.90125 -0.0518969 6.55037 0.125559 6.30393C0.242391 6.14174 0.340647 6.03763 0.546135 6.01368C0.699639 5.99577 0.837447 6.04209 0.957111 6.15173C2.6363 7.69032 4.97246 8.56017 6.88583 7.19918C8.61762 5.96736 9.3609 4.26029 10.1854 2.30721C10.2933 2.05166 10.534 1.91361 10.7736 1.95461C10.7786 1.95552 10.7837 1.95552 10.7887 1.95461C11.0283 1.91361 11.269 2.05166 11.377 2.30721C12.2014 4.26024 12.9448 5.96736 14.6765 7.19918C16.5899 8.56017 18.6142 8.46864 20.2933 6.93005C20.5348 6.70881 20.8854 6.74961 21.0814 7.02187L21.1249 7.08225C21.3024 7.32869 21.2906 7.67957 21.097 7.91021C20.4677 8.6603 18.8147 9.76982 17.8126 9.92381C17.3532 9.99441 17.1914 10.7006 17.2383 11.3953C17.3642 13.2582 18.0068 13.9565 18.8874 15.651C18.8906 15.657 18.8924 15.6637 18.8926 15.6705C18.8928 15.6773 18.8913 15.6841 18.8884 15.6902C18.8857 15.6965 18.8815 15.702 18.8762 15.7063C18.8709 15.7106 18.8647 15.7136 18.858 15.7151C18.3449 15.8362 17.8492 15.9029 17.3696 15.9199C17.358 15.9203 17.3471 15.9252 17.3391 15.9334C17.331 15.9417 17.3265 15.9528 17.3265 15.9643L17.3125 18.1425C17.3093 18.6383 16.9518 19.044 16.511 19.044C16.0702 19.044 15.7065 18.6383 15.7095 18.1425L15.7235 15.8134C15.7236 15.8032 15.7202 15.7932 15.7138 15.7852C15.7074 15.7772 15.6984 15.7716 15.6884 15.7695C15.2325 15.6693 14.7916 15.5221 14.3643 15.3329C14.3515 15.3272 14.338 15.3276 14.3255 15.3341C14.313 15.3407 14.305 15.3515 14.3023 15.3653L13.7142 18.4146C13.561 19.2094 12.8321 19.3007 12.4692 19.044C12.1124 18.7918 12.1196 18.2011 12.1858 17.8707L12.8626 14.497C12.8644 14.4885 12.8637 14.4798 12.8606 14.4717C12.8574 14.4637 12.852 14.4568 12.8449 14.4519C12.4879 14.1948 12.1402 13.9087 11.8009 13.5967C11.7947 13.5911 11.7902 13.5839 11.788 13.5759C11.7857 13.5679 11.7858 13.5595 11.7882 13.5515L13.008 9.28152C13.1646 8.73326 13.0185 8.18083 12.675 7.75622C12.1042 7.05067 11.6296 6.26184 11.2948 5.47171C11.1849 5.21213 11.0782 4.95119 10.9747 4.68897C10.9679 4.67184 10.9524 4.66104 10.934 4.6607C10.9155 4.66037 10.8996 4.67054 10.8922 4.68739C10.3019 6.0275 9.28146 7.53307 8.61081 8.70081C8.22225 9.37733 8.1081 9.9623 8.04916 10.3063C7.81266 11.6872 8.85446 16.2928 9.09143 18.0037ZM5.05521 3.14573C3.89654 3.14573 2.95722 4.08504 2.95722 5.24371C2.95722 6.40238 3.89654 7.34169 5.05521 7.34169C6.21388 7.34169 7.15319 6.40238 7.15319 5.24371C7.15319 4.08504 6.21388 3.14573 5.05521 3.14573Z" fill="black"/>
</svg>
