<svg width="20" height="20" viewBox="0 0 20 20" fill="none" xmlns="http://www.w3.org/2000/svg">
<path d="M18.1389 0H17.3555C17.0251 0.000347436 16.7084 0.131747 16.4747 0.365365C16.2411 0.598984 16.1097 0.915739 16.1094 1.24612V12.8319C16.1098 12.8477 16.1114 12.8634 16.1141 12.879C16.1141 12.8839 16.1141 12.8889 16.1156 12.8936C16.1204 12.9188 16.1282 12.9433 16.1388 12.9666L16.1399 12.9701L17.4496 15.7924C17.476 15.8491 17.518 15.8971 17.5707 15.9307C17.6234 15.9643 17.6847 15.9822 17.7472 15.9822C17.8097 15.9822 17.871 15.9643 17.9237 15.9307C17.9764 15.8971 18.0184 15.8491 18.0447 15.7924L19.3544 12.9701L19.3556 12.9666C19.3662 12.9433 19.374 12.9189 19.3788 12.8938C19.3788 12.8888 19.3788 12.8839 19.3803 12.8788C19.383 12.8633 19.3846 12.8477 19.385 12.8319V1.24612C19.3847 0.915739 19.2533 0.598984 19.0196 0.365365C18.786 0.131747 18.4693 0.000347436 18.1389 0ZM16.7656 12.5038V2.81663H17.4191V12.5038H16.7656ZM18.0753 2.81663H18.7288V12.5038H18.0753V2.81663ZM16.7656 1.24612C16.7658 1.08973 16.828 0.939776 16.9386 0.829185C17.0492 0.718594 17.1991 0.656399 17.3555 0.65625H18.1389C18.2953 0.656399 18.4452 0.718594 18.5558 0.829185C18.6664 0.939776 18.7286 1.08973 18.7288 1.24612V2.16038H16.7656V1.24612ZM17.7472 14.8748L16.9514 13.1601H18.5424L17.7472 14.8748Z" fill="black"/>
<path d="M1.75069 19.7651H15.9499C16.414 19.7646 16.859 19.58 17.1872 19.2519C17.5154 18.9237 17.7 18.4788 17.7006 18.0146V17.3424C17.7006 17.2993 17.6921 17.2567 17.6756 17.2168C17.6592 17.177 17.635 17.1408 17.6045 17.1104C17.574 17.0799 17.5379 17.0557 17.498 17.0392C17.4582 17.0228 17.4155 17.0143 17.3724 17.0143H14.8556V0.328125C14.8556 0.285028 14.8472 0.242349 14.8307 0.202528C14.8142 0.162707 14.79 0.126525 14.7596 0.0960507C14.7291 0.0655765 14.6929 0.041408 14.6531 0.0249269C14.6133 0.0084458 14.5706 -2.45943e-05 14.5275 5.36376e-08H0.328125C0.285028 -2.45943e-05 0.242349 0.0084458 0.202528 0.0249269C0.162707 0.041408 0.126525 0.0655765 0.0960507 0.0960507C0.0655765 0.126525 0.041408 0.162707 0.0249269 0.202528C0.0084458 0.242349 -2.45943e-05 0.285028 5.36376e-08 0.328125V18.0146C0.000496374 18.4787 0.185083 18.9237 0.513258 19.2519C0.841433 19.58 1.28658 19.7646 1.75069 19.7651ZM17.0443 18.0146C17.044 18.3048 16.9285 18.5829 16.7234 18.7881C16.5182 18.9932 16.24 19.1086 15.9499 19.1089H3.11606C3.36556 18.7988 3.50146 18.4126 3.50119 18.0146V17.6706H17.0443V18.0146ZM0.656813 18.0146V0.65625H14.1999V17.0143H3.17306C3.12997 17.0143 3.08729 17.0228 3.04747 17.0392C3.00764 17.0557 2.97146 17.0799 2.94099 17.1104C2.91051 17.1408 2.88635 17.177 2.86986 17.2168C2.85338 17.2567 2.84491 17.2993 2.84494 17.3424V18.0146C2.84464 18.3047 2.72928 18.5828 2.52418 18.788C2.31907 18.9931 2.04096 19.1085 1.75087 19.1089C1.4607 19.1086 1.18248 18.9933 0.977265 18.7881C0.772047 18.583 0.656597 18.3048 0.65625 18.0146H0.656813Z" fill="black"/>
<path d="M12.4705 7.36031H5.42055C5.33352 7.36031 5.25006 7.39488 5.18853 7.45642C5.12699 7.51795 5.09242 7.60141 5.09242 7.68844C5.09242 7.77546 5.12699 7.85892 5.18853 7.92046C5.25006 7.98199 5.33352 8.01656 5.42055 8.01656H12.4705C12.5576 8.01656 12.641 7.98199 12.7026 7.92046C12.7641 7.85892 12.7987 7.77546 12.7987 7.68844C12.7987 7.60141 12.7641 7.51795 12.7026 7.45642C12.641 7.39488 12.5576 7.36031 12.4705 7.36031ZM12.4705 10.6142H5.42055C5.33352 10.6142 5.25006 10.6488 5.18853 10.7103C5.12699 10.7718 5.09242 10.8553 5.09242 10.9423C5.09242 11.0293 5.12699 11.1128 5.18853 11.1743C5.25006 11.2359 5.33352 11.2704 5.42055 11.2704H12.4705C12.5576 11.2704 12.641 11.2359 12.7026 11.1743C12.7641 11.1128 12.7987 11.0293 12.7987 10.9423C12.7987 10.8553 12.7641 10.7718 12.7026 10.7103C12.641 10.6488 12.5576 10.6142 12.4705 10.6142ZM3.93892 9.83719H2.38511C2.29809 9.83719 2.21463 9.87176 2.15309 9.93329C2.09155 9.99483 2.05698 10.0783 2.05698 10.1653V11.7191C2.05698 11.8061 2.09155 11.8896 2.15309 11.9511C2.21463 12.0127 2.29809 12.0472 2.38511 12.0472H3.93892C3.98202 12.0473 4.0247 12.0388 4.06452 12.0223C4.10434 12.0058 4.14052 11.9817 4.171 11.9512C4.20147 11.9207 4.22564 11.8845 4.24212 11.8447C4.2586 11.8049 4.26707 11.7622 4.26705 11.7191V10.1653C4.26707 10.1222 4.2586 10.0795 4.24212 10.0397C4.22564 9.9999 4.20147 9.96371 4.171 9.93324C4.14052 9.90276 4.10434 9.8786 4.06452 9.86211C4.0247 9.84563 3.98202 9.83716 3.93892 9.83719ZM3.6108 11.391H2.71323V10.4934H3.6108V11.391ZM3.93892 13.0914H2.38511C2.29809 13.0914 2.21463 13.126 2.15309 13.1875C2.09155 13.2491 2.05698 13.3325 2.05698 13.4196V14.9734C2.05698 15.0604 2.09155 15.1439 2.15309 15.2054C2.21463 15.2669 2.29809 15.3015 2.38511 15.3015H3.93892C3.98202 15.3015 4.0247 15.2931 4.06452 15.2766C4.10434 15.2601 4.14052 15.2359 4.171 15.2055C4.20147 15.175 4.22564 15.1388 4.24212 15.099C4.2586 15.0592 4.26707 15.0165 4.26705 14.9734V13.4194C4.26705 13.3763 4.25856 13.3336 4.24207 13.2938C4.22557 13.254 4.2014 13.2179 4.17093 13.1874C4.14046 13.157 4.10428 13.1328 4.06448 13.1163C4.02467 13.0999 3.982 13.0914 3.93892 13.0914ZM3.6108 14.6453H2.71323V13.7477H3.6108V14.6453ZM12.4705 13.8681H5.42055C5.33352 13.8681 5.25006 13.9026 5.18853 13.9642C5.12699 14.0257 5.09242 14.1092 5.09242 14.1962C5.09242 14.2832 5.12699 14.3667 5.18853 14.4282C5.25006 14.4897 5.33352 14.5243 5.42055 14.5243H12.4705C12.5576 14.5243 12.641 14.4897 12.7026 14.4282C12.7641 14.3667 12.7987 14.2832 12.7987 14.1962C12.7987 14.1092 12.7641 14.0257 12.7026 13.9642C12.641 13.9026 12.5576 13.8681 12.4705 13.8681ZM2.71455 7.36406C2.65303 7.30255 2.5696 7.26799 2.48261 7.26799C2.39562 7.26799 2.31219 7.30255 2.25067 7.36406C2.18916 7.42558 2.1546 7.50901 2.1546 7.596C2.1546 7.68299 2.18916 7.76642 2.25067 7.82794L2.95061 8.52806C3.01219 8.58951 3.09564 8.62403 3.18264 8.62403C3.26964 8.62403 3.35309 8.58951 3.41467 8.52806L4.63023 7.31269C4.66157 7.28241 4.68656 7.2462 4.70375 7.20617C4.72093 7.16613 4.72998 7.12307 4.73035 7.0795C4.73072 7.03593 4.72241 6.99273 4.7059 6.95241C4.68939 6.91208 4.66502 6.87545 4.63421 6.84465C4.60339 6.81385 4.56675 6.78949 4.52642 6.773C4.48609 6.75651 4.44288 6.74822 4.39932 6.74861C4.35575 6.74899 4.31269 6.75805 4.27267 6.77526C4.23264 6.79246 4.19643 6.81747 4.16617 6.84881L3.18255 7.83206L2.71455 7.36406ZM1.99023 4.83769H3.62392C3.71095 4.83769 3.79441 4.80312 3.85594 4.74158C3.91748 4.68005 3.95205 4.59659 3.95205 4.50956C3.95205 4.42254 3.91748 4.33908 3.85594 4.27754C3.79441 4.21601 3.71095 4.18144 3.62392 4.18144H2.31836V3.47363H3.62392C3.71095 3.47363 3.79441 3.43905 3.85594 3.37752C3.91748 3.31598 3.95205 3.23252 3.95205 3.1455C3.95205 3.05848 3.91748 2.97502 3.85594 2.91348C3.79441 2.85195 3.71095 2.81738 3.62392 2.81738H2.31836V2.10938H3.62392C3.71095 2.10938 3.79441 2.07481 3.85594 2.01327C3.91748 1.95173 3.95205 1.86827 3.95205 1.78125C3.95205 1.69423 3.91748 1.61077 3.85594 1.54923C3.79441 1.4877 3.71095 1.45312 3.62392 1.45312H1.99023C1.90321 1.45313 1.81975 1.4877 1.75822 1.54923C1.69668 1.61077 1.66211 1.69423 1.66211 1.78125V4.50956C1.66208 4.55266 1.67055 4.59534 1.68704 4.63516C1.70352 4.67498 1.72769 4.71116 1.75816 4.74164C1.78863 4.77211 1.82482 4.79628 1.86464 4.81276C1.90446 4.82924 1.94714 4.83771 1.99023 4.83769ZM10.5436 4.83769C10.5867 4.83771 10.6294 4.82924 10.6692 4.81276C10.709 4.79628 10.7452 4.77211 10.7757 4.74164C10.8062 4.71116 10.8303 4.67498 10.8468 4.63516C10.8633 4.59534 10.8718 4.55266 10.8717 4.50956V2.70825L11.4494 3.42169C11.4812 3.45804 11.5205 3.48717 11.5645 3.50713C11.6084 3.52709 11.6562 3.53742 11.7045 3.53742C11.7528 3.53742 11.8006 3.52709 11.8446 3.50713C11.8886 3.48717 11.9278 3.45804 11.9596 3.42169L12.5373 2.70919V4.50956C12.5373 4.59659 12.5719 4.68005 12.6334 4.74158C12.6949 4.80312 12.7784 4.83769 12.8654 4.83769C12.9524 4.83769 13.0359 4.80312 13.0974 4.74158C13.159 4.68005 13.1935 4.59659 13.1935 4.50956V1.78125C13.1935 1.71344 13.1724 1.64732 13.1333 1.59197C13.0941 1.53662 13.0388 1.49476 12.9748 1.47215C12.9109 1.44954 12.8416 1.44729 12.7763 1.46571C12.711 1.48412 12.6531 1.52231 12.6104 1.575L11.7044 2.694L10.799 1.57481C10.7563 1.52212 10.6984 1.48394 10.6331 1.46552C10.5679 1.4471 10.4985 1.44935 10.4346 1.47196C10.3706 1.49457 10.3153 1.53643 10.2761 1.59178C10.237 1.64713 10.2159 1.71326 10.2159 1.78106V4.50956C10.2158 4.55263 10.2243 4.59528 10.2408 4.63507C10.2572 4.67487 10.2813 4.71104 10.3118 4.7415C10.3422 4.77197 10.3783 4.79615 10.4181 4.81265C10.4579 4.82916 10.5005 4.83766 10.5436 4.83769ZM4.52786 4.7745C4.56264 4.79993 4.6021 4.81825 4.64397 4.82842C4.68584 4.8386 4.72931 4.84042 4.77188 4.83378C4.81446 4.82715 4.85531 4.81219 4.8921 4.78976C4.92889 4.76733 4.9609 4.73787 4.9863 4.70306L5.71755 3.70163L6.4488 4.70306C6.47418 4.73794 6.50619 4.76748 6.54299 4.78999C6.57979 4.81249 6.62067 4.82753 6.66328 4.83425C6.70589 4.84096 6.74941 4.83921 6.79135 4.8291C6.83329 4.819 6.87282 4.80073 6.9077 4.77534C6.94258 4.74996 6.97212 4.71795 6.99463 4.68115C7.01713 4.64435 7.03217 4.60347 7.03889 4.56086C7.0456 4.51825 7.04385 4.47473 7.03374 4.43279C7.02364 4.39085 7.00537 4.35132 6.97998 4.31644L6.12461 3.1455L6.97998 1.97494C7.00541 1.94015 7.02373 1.90069 7.0339 1.85881C7.04408 1.81694 7.0459 1.77347 7.03928 1.7309C7.03265 1.68832 7.01771 1.64746 6.99529 1.61066C6.97288 1.57386 6.94343 1.54183 6.90864 1.51641C6.87385 1.49098 6.83439 1.47266 6.79252 1.46249C6.75064 1.45231 6.70718 1.45049 6.6646 1.45711C6.62202 1.46374 6.58116 1.47868 6.54436 1.5011C6.50756 1.52351 6.47553 1.55296 6.45011 1.58775L5.71886 2.58938L4.98761 1.58775C4.93626 1.51748 4.85911 1.47049 4.77312 1.45711C4.68713 1.44373 4.59934 1.46506 4.52908 1.51641C4.45881 1.56775 4.41182 1.64491 4.39844 1.7309C4.38506 1.81689 4.40639 1.90467 4.45773 1.97494L5.31311 3.1455L4.45642 4.31644C4.40523 4.38668 4.38401 4.47437 4.3974 4.56024C4.41079 4.64612 4.45771 4.72318 4.52786 4.7745ZM7.81248 4.83769C7.89951 4.83769 7.98297 4.80312 8.0445 4.74158C8.10604 4.68005 8.14061 4.59659 8.14061 4.50956V3.47363H9.11805V4.50956C9.11805 4.59659 9.15262 4.68005 9.21415 4.74158C9.27569 4.80312 9.35915 4.83769 9.44617 4.83769C9.5332 4.83769 9.61666 4.80312 9.67819 4.74158C9.73973 4.68005 9.7743 4.59659 9.7743 4.50956V1.78125C9.77425 1.69424 9.73966 1.61081 9.67814 1.54929C9.61661 1.48776 9.53318 1.45317 9.44617 1.45312H7.81248C7.72546 1.45313 7.642 1.4877 7.58046 1.54923C7.51893 1.61077 7.48436 1.69423 7.48436 1.78125V4.50956C7.48433 4.55266 7.4928 4.59534 7.50929 4.63516C7.52577 4.67498 7.54993 4.71116 7.58041 4.74164C7.61088 4.77211 7.64707 4.79628 7.68689 4.81276C7.72671 4.82924 7.76939 4.83771 7.81248 4.83769ZM9.11805 2.10938V2.81738H8.14061V2.10938H9.11805Z" fill="black"/>
</svg>
