<svg width="21" height="18" viewBox="0 0 21 18" fill="none" xmlns="http://www.w3.org/2000/svg">
<path d="M20.0238 3.37495C19.8097 3.34618 19.593 3.39087 19.4004 3.50352L14.3682 6.42852V11.5714L19.4004 14.4964C19.5687 14.5942 19.7557 14.6404 19.9437 14.6307C20.1316 14.621 20.3143 14.5556 20.4745 14.4407C20.6346 14.3259 20.7669 14.1654 20.8589 13.9744C20.9508 13.7835 20.9993 13.5684 20.9997 13.3495V4.65037C20.9994 4.33568 20.8999 4.03205 20.7201 3.79699C20.5402 3.56193 20.2925 3.41176 20.0238 3.37495Z" fill="black"/>
<path d="M3.31579 0C1.49763 0 0 1.74214 0 3.85714V14.1429C0 16.2579 1.49763 18 3.31579 18H12.1579C13.9761 18 15.4737 16.2579 15.4737 14.1429V3.85714C15.4737 1.74214 13.9761 0 12.1579 0H3.31579Z" fill="black"/>
</svg>
