<svg width="20" height="22" viewBox="0 0 20 22" fill="none" xmlns="http://www.w3.org/2000/svg">
<path fill-rule="evenodd" clip-rule="evenodd" d="M19.3167 20.4431V11.5341H6.98625C6.93924 11.5341 6.89278 11.524 6.85 11.5045C6.80723 11.485 6.76913 11.4566 6.73828 11.4211L3.87047 8.11453C3.61313 7.81781 3.28359 7.66781 2.89125 7.66781H1.40062C0.628125 7.66781 0 8.29594 0 9.06844V20.4441C0 21.2166 0.628125 21.8447 1.40062 21.8447H17.9161C18.6886 21.8438 19.3167 21.2156 19.3167 20.4431ZM12.9633 15.2016V18.4739H11.2945V20.1422H8.02219V18.4739H6.35391V15.2016H8.02219V13.5328H11.2945V15.2011H12.9633V15.2016ZM15.5208 10.8778V2.12437C15.5208 1.94297 15.3741 1.79625 15.1927 1.79625H4.45266V0H17.2177V10.8773H15.5208V10.8778ZM14.8645 10.8778V2.4525H2.09953V7.01062H2.89125C3.47437 7.01062 3.98438 7.24359 4.36641 7.68375L7.13625 10.8773H14.8645V10.8778ZM7.30828 8.83687H12.6183C12.7997 8.83687 12.9464 8.98359 12.9464 9.165C12.9464 9.34641 12.7997 9.49312 12.6183 9.49312H7.30828C7.12688 9.49312 6.98016 9.34641 6.98016 9.165C6.97969 8.98359 7.12688 8.83687 7.30828 8.83687ZM12.6178 7.10812H5.75344C5.57203 7.10812 5.42531 6.96141 5.42531 6.78C5.42531 6.59859 5.57203 6.45187 5.75344 6.45187H12.6178C12.7992 6.45187 12.9459 6.59859 12.9459 6.78C12.9459 6.96141 12.7992 7.10812 12.6178 7.10812ZM12.6178 4.72359H4.12453C3.94313 4.72359 3.79641 4.57687 3.79641 4.39547C3.79641 4.21406 3.94313 4.06734 4.12453 4.06734H12.6178C12.7992 4.06734 12.9459 4.21406 12.9459 4.39547C12.9459 4.57687 12.7992 4.72359 12.6178 4.72359ZM18.0394 9.49828C18.7514 9.56109 19.3083 10.1639 19.3167 10.8778H17.8739V9.49734C17.9466 9.49781 18.0155 9.49828 18.0394 9.49828ZM12.307 15.8573V17.8177H10.6383V19.4859H8.67844V17.8177H7.01016V15.8573H8.67844V14.1891H10.6383V15.8573H12.307Z" fill="black"/>
</svg>
