<svg width="24" height="21" viewBox="0 0 24 21" fill="none" xmlns="http://www.w3.org/2000/svg">
<path d="M21.7904 0H11.2463C10.0261 0 9.03711 0.989156 9.03711 2.20917V7.40292C9.5945 7.67995 10.1968 7.97953 10.7589 8.25895L11.6189 6.53817C12.1397 5.49755 13.4091 5.07473 14.4494 5.59458C15.4918 6.1163 15.9142 7.38225 15.3924 8.42489L13.8592 11.4919C13.9003 11.899 13.863 12.3101 13.7494 12.7031H14.7616L12.0919 20.0442C11.9335 20.4796 12.2397 20.9877 12.7529 20.9877C13.0398 20.9877 13.3098 20.8107 13.4134 20.5246L16.2577 12.7031H16.7505L19.6237 20.527C19.7283 20.8116 19.9975 20.9877 20.2842 20.9877C20.7637 20.9877 21.1153 20.5088 20.9437 20.0423L18.2485 12.7031H21.7905C23.0105 12.7031 23.9996 11.714 23.9996 10.494V2.20922C23.9996 0.989156 23.0105 0 21.7904 0ZM20.2839 9.69084H17.1291C16.7409 9.69084 16.426 9.37594 16.426 8.98772C16.426 8.59917 16.7409 8.28459 17.1291 8.28459H20.2838C20.6724 8.28459 20.987 8.59917 20.987 8.98772C20.987 9.37594 20.6725 9.69084 20.2839 9.69084ZM20.2839 7.05469H17.1291C16.7409 7.05469 16.426 6.74016 16.426 6.35156C16.426 5.96339 16.7409 5.64844 17.1291 5.64844H20.2838C20.6724 5.64844 20.987 5.96339 20.987 6.35156C20.987 6.74016 20.6725 7.05469 20.2839 7.05469ZM20.2839 4.41891H12.7529C12.3643 4.41891 12.0498 4.10391 12.0498 3.71578C12.0498 3.32766 12.3643 3.01266 12.7529 3.01266H20.2838C20.6724 3.01266 20.987 3.32756 20.987 3.71578C20.987 4.104 20.6724 4.41891 20.2839 4.41891Z" fill="black"/>
<path d="M12.3713 12.4015C12.4984 12.0293 12.4975 11.6404 12.3902 11.2855L14.1352 7.79587C14.3088 7.44853 14.1682 7.02614 13.8208 6.85252C13.4737 6.67875 13.0512 6.81956 12.8775 7.16695L11.3892 10.1431C10.4996 9.70017 9.14813 9.02822 8.05941 8.48677C7.04644 7.98305 6.32353 7.53131 5.09016 7.53131H4.46887C5.42925 7.53131 6.28636 7.08928 6.84741 6.3975C7.27552 5.87109 7.5315 5.20017 7.5315 4.46906C7.5315 2.77734 6.16041 1.40625 4.4685 1.40625C2.77734 1.40625 1.40625 2.77734 1.40625 4.46906C1.40625 5.2815 1.72266 6.01978 2.23884 6.56766C2.79694 7.16109 3.58959 7.53131 4.46831 7.5315C3.2902 7.5315 2.13848 8.00883 1.30992 8.83959C0.465234 9.68208 0 10.8045 0 12.0002V14.2596C0 15.2322 0.631547 16.0598 1.50623 16.3543V20.2844C1.50623 20.6728 1.821 20.9875 2.20936 20.9875H6.72802C7.11638 20.9875 7.43114 20.6728 7.43114 20.2844V12.3844C8.09784 12.7177 8.97366 13.1555 9.68227 13.5099C10.179 13.7582 10.7595 13.7805 11.2771 13.57C11.7933 13.3576 12.1912 12.9348 12.3686 12.4098L12.3713 12.4015Z" fill="black"/>
</svg>
