<svg width="21" height="19" viewBox="0 0 21 19" fill="none" xmlns="http://www.w3.org/2000/svg">
<path d="M15.315 0L13.125 1.3125L10.9425 0L8.7525 1.3125L6.57 0L4.38 1.3125L2.19 0L0 1.3125V17.2125C0 17.6879 0.188852 18.1438 0.525011 18.48C0.69146 18.6464 0.889064 18.7785 1.10654 18.8686C1.32402 18.9586 1.55711 19.005 1.7925 19.005H12.414C11.6048 18.4373 10.9441 17.6832 10.4878 16.8063C10.0314 15.9295 9.79276 14.9557 9.792 13.9673C9.792 10.5668 12.558 7.80075 15.9585 7.80075C16.491 7.80075 17.0047 7.87575 17.4975 8.00325V1.3125L15.315 0ZM8.24025 14.5208H3.64425C3.46523 14.5208 3.29354 14.4496 3.16695 14.323C3.04037 14.1965 2.96925 14.0248 2.96925 13.8458C2.96925 13.6667 3.04037 13.495 3.16695 13.3685C3.29354 13.2419 3.46523 13.1708 3.64425 13.1708H8.24025C8.41927 13.1708 8.59096 13.2419 8.71755 13.3685C8.84413 13.495 8.91525 13.6667 8.91525 13.8458C8.91525 14.0248 8.84413 14.1965 8.71755 14.323C8.59096 14.4496 8.41927 14.5208 8.24025 14.5208ZM9.3075 10.8413H3.645C3.46598 10.8413 3.29429 10.7701 3.1677 10.6435C3.04112 10.517 2.97 10.3453 2.97 10.1663C2.97 9.98723 3.04112 9.81554 3.1677 9.68895C3.29429 9.56237 3.46598 9.49125 3.645 9.49125H9.3075C9.48652 9.49125 9.65821 9.56237 9.7848 9.68895C9.91138 9.81554 9.9825 9.98723 9.9825 10.1663C9.9825 10.3453 9.91138 10.517 9.7848 10.6435C9.65821 10.7701 9.48652 10.8413 9.3075 10.8413ZM13.8563 7.15575H3.64425C3.46523 7.15575 3.29354 7.08463 3.16695 6.95805C3.04037 6.83146 2.96925 6.65977 2.96925 6.48075C2.96925 6.30173 3.04037 6.13004 3.16695 6.00345C3.29354 5.87687 3.46523 5.80575 3.64425 5.80575H13.8563C14.0353 5.80575 14.207 5.87687 14.3335 6.00345C14.4601 6.13004 14.5312 6.30173 14.5312 6.48075C14.5312 6.65977 14.4601 6.83146 14.3335 6.95805C14.207 7.08463 14.0353 7.15575 13.8563 7.15575Z" fill="black"/>
<path d="M15.9595 8.92188C15.2974 8.92187 14.6418 9.05228 14.0302 9.30564C13.4185 9.559 12.8627 9.93035 12.3946 10.3985C11.9264 10.8666 11.5551 11.4224 11.3017 12.0341C11.0484 12.6457 10.918 13.3013 10.918 13.9634C10.918 14.6254 11.0484 15.281 11.3017 15.8927C11.5551 16.5043 11.9264 17.0601 12.3946 17.5283C12.8627 17.9964 13.4185 18.3678 14.0302 18.6211C14.6418 18.8745 15.2974 19.0049 15.9595 19.0049C17.2966 19.0049 18.5789 18.4737 19.5243 17.5283C20.4698 16.5828 21.001 15.3005 21.001 13.9634C21.001 12.6263 20.4698 11.344 19.5243 10.3985C18.5789 9.45303 17.2966 8.92188 15.9595 8.92188ZM16.6322 16.3881V16.5314C16.6355 16.7097 16.5678 16.882 16.444 17.0104C16.3203 17.1389 16.1505 17.2128 15.9722 17.2161C15.7939 17.2194 15.6216 17.1517 15.4932 17.0279C15.3647 16.9042 15.2908 16.7344 15.2875 16.5561C14.9997 16.5174 14.7359 16.3754 14.545 16.1565C14.3542 15.9377 14.2494 15.657 14.2502 15.3666C14.25 15.2004 14.3111 15.04 14.4218 14.9161C14.5325 14.7921 14.685 14.7134 14.8501 14.6949C15.0153 14.6764 15.1815 14.7195 15.3168 14.8159C15.4522 14.9123 15.5472 15.0553 15.5837 15.2174C16.1072 15.1814 16.5055 15.0434 16.513 14.8866C16.5152 14.8949 16.3862 14.7546 15.8065 14.6219C14.5907 14.3459 14.0027 13.7856 14.0597 12.9554C14.089 12.5219 14.3102 11.8611 15.283 11.5401V11.3954C15.283 11.2164 15.3541 11.0447 15.4807 10.9181C15.6073 10.7915 15.7789 10.7204 15.958 10.7204C16.3225 10.7204 16.6142 11.0099 16.6277 11.3714C16.8752 11.4074 17.1085 11.5131 17.293 11.6916C17.5277 11.9181 17.662 12.2354 17.662 12.5616C17.6624 12.7279 17.6014 12.8884 17.4908 13.0125C17.3802 13.1366 17.2276 13.2155 17.0624 13.2341C16.8972 13.2527 16.731 13.2096 16.5955 13.1132C16.4601 13.0168 16.365 12.8738 16.3285 12.7116C15.7825 12.7476 15.418 12.8781 15.4067 13.0476C15.4052 13.0401 15.5042 13.1691 16.1057 13.3056C17.5847 13.6424 17.8772 14.3684 17.863 14.9189C17.8525 15.2864 17.692 16.0386 16.6322 16.3881Z" fill="black"/>
</svg>
