<svg width="23" height="23" viewBox="0 0 23 23" fill="none" xmlns="http://www.w3.org/2000/svg">
<path d="M11.2578 12C10.3678 12 9.49777 11.7361 8.75775 11.2416C8.01773 10.7471 7.44095 10.0443 7.10036 9.22208C6.75976 8.39981 6.67065 7.49501 6.84428 6.6221C7.01791 5.74918 7.4465 4.94736 8.07583 4.31802C8.70517 3.68869 9.50699 3.2601 10.3799 3.08647C11.2528 2.91283 12.1576 3.00195 12.9799 3.34254C13.8022 3.68314 14.505 4.25991 14.9994 4.99994C15.4939 5.73996 15.7578 6.60999 15.7578 7.5C15.7578 8.69348 15.2837 9.83807 14.4398 10.682C13.5959 11.5259 12.4513 12 11.2578 12ZM11.2578 4.5C10.6645 4.5 10.0845 4.67595 9.5911 5.00559C9.09776 5.33524 8.71324 5.80377 8.48618 6.35195C8.25911 6.90013 8.1997 7.50333 8.31546 8.08527C8.43121 8.66722 8.71694 9.20177 9.13649 9.62132C9.55605 10.0409 10.0906 10.3266 10.6725 10.4424C11.2545 10.5581 11.8577 10.4987 12.4059 10.2716C12.954 10.0446 13.4226 9.66006 13.7522 9.16671C14.0819 8.67337 14.2578 8.09335 14.2578 7.5C14.2578 6.70435 13.9417 5.94129 13.3791 5.37868C12.8165 4.81607 12.0535 4.5 11.2578 4.5Z" fill="black"/>
<path d="M11.2583 22.4987C9.59511 22.4976 7.95288 22.1277 6.44981 21.4157C4.94674 20.7038 3.62023 19.6674 2.56578 18.3812L2.17578 17.9012L2.56578 17.4287C3.62112 16.1442 4.94802 15.1095 6.45104 14.3991C7.95406 13.6888 9.59584 13.3203 11.2583 13.3203C12.9207 13.3203 14.5625 13.6888 16.0655 14.3991C17.5685 15.1095 18.8954 16.1442 19.9508 17.4287L20.3408 17.9012L19.9508 18.3812C18.8963 19.6674 17.5698 20.7038 16.0668 21.4157C14.5637 22.1277 12.9214 22.4976 11.2583 22.4987ZM4.14078 17.9087C5.05296 18.8852 6.15613 19.6638 7.38181 20.1961C8.60748 20.7284 9.9295 21.0031 11.2658 21.0031C12.6021 21.0031 13.9241 20.7284 15.1498 20.1961C16.3754 19.6638 17.4786 18.8852 18.3908 17.9087C17.4786 16.9322 16.3754 16.1536 15.1498 15.6213C13.9241 15.089 12.6021 14.8143 11.2658 14.8143C9.9295 14.8143 8.60748 15.089 7.38181 15.6213C6.15613 16.1536 5.05296 16.9322 4.14078 17.9087Z" fill="black"/>
<path d="M11.2575 22.5C8.70207 22.5017 6.22219 21.6334 4.22603 20.0378C2.22986 18.4423 0.836375 16.2148 0.274911 13.7218C-0.286553 11.2288 0.017465 8.61891 1.13693 6.32172C2.25639 4.02453 4.12459 2.17691 6.43404 1.08296C8.74349 -0.0109907 11.3566 -0.286082 13.8432 0.302961C16.3298 0.892004 18.5418 2.31008 20.1151 4.32379C21.6884 6.3375 22.5292 8.82685 22.4992 11.3821C22.4692 13.9374 21.5702 16.4063 19.95 18.3825C18.8956 19.6687 17.5691 20.7051 16.066 21.4171C14.5629 22.129 12.9207 22.4989 11.2575 22.5ZM11.2575 1.50001C9.32914 1.50001 7.44408 2.07184 5.8407 3.14318C4.23732 4.21452 2.98764 5.73726 2.24969 7.51884C1.51173 9.30042 1.31865 11.2608 1.69485 13.1521C2.07106 15.0435 2.99966 16.7807 4.36322 18.1443C5.72678 19.5079 7.46407 20.4365 9.35538 20.8127C11.2467 21.1889 13.2071 20.9958 14.9887 20.2578C16.7703 19.5199 18.293 18.2702 19.3643 16.6668C20.4357 15.0634 21.0075 13.1784 21.0075 11.25C21.0075 8.66415 19.9803 6.1842 18.1518 4.35572C16.3233 2.52724 13.8434 1.50001 11.2575 1.50001Z" fill="black"/>
<path d="M3.14258 17.9089C3.14258 17.9089 10.6951 26.3464 18.3826 18.7489L19.3726 17.9089C19.3726 17.9089 12.9526 11.2489 6.43508 15.2464L3.14258 17.9089Z" fill="black"/>
<path d="M11.2578 11.25C13.3289 11.25 15.0078 9.57107 15.0078 7.5C15.0078 5.42893 13.3289 3.75 11.2578 3.75C9.18674 3.75 7.50781 5.42893 7.50781 7.5C7.50781 9.57107 9.18674 11.25 11.2578 11.25Z" fill="black"/>
</svg>
