<svg width="21" height="22" viewBox="0 0 21 22" fill="none" xmlns="http://www.w3.org/2000/svg">
<path d="M3.83337 21.2139V17.7578H1.79044C1.46654 17.7578 1.20117 18.0227 1.20117 18.3471V20.6251C1.20117 20.949 1.46605 21.2144 1.79044 21.2144H3.83337V21.2139Z" fill="black"/>
<path d="M3.83203 17.7578V21.2139H12.5013V17.7578H4.95008H3.83203Z" fill="black"/>
<path d="M12.502 17.7583V21.2144H14.5449C14.8688 21.2144 15.1341 20.9495 15.1341 20.6251V18.3471C15.1341 18.0232 14.8693 17.7578 14.5449 17.7578H12.502V17.7583Z" fill="black"/>
<path d="M13.6191 14.3052V17.7613H15.6616C15.9855 17.7613 16.2508 17.4964 16.2508 17.172V14.894C16.2508 14.5701 15.986 14.3047 15.6616 14.3047H13.6191V14.3052Z" fill="black"/>
<path d="M13.6204 17.7608V14.3047H4.95117V17.7608H12.5024H13.6204Z" fill="black"/>
<path d="M4.95007 17.7608V14.3047H2.90763C2.58373 14.3047 2.31836 14.5696 2.31836 14.894V17.172C2.31836 17.4959 2.58324 17.7613 2.90763 17.7613H4.95007V17.7608Z" fill="black"/>
<path fill-rule="evenodd" clip-rule="evenodd" d="M6.49219 13.7106C6.49219 14.0345 6.75706 14.2998 7.08146 14.2998H9.12438V10.8438H7.08146C6.75755 10.8438 6.49219 11.1086 6.49219 11.433V13.7106Z" fill="black"/>
<path fill-rule="evenodd" clip-rule="evenodd" d="M9.125 10.8438V14.2998H17.7948V10.8438H9.125Z" fill="black"/>
<path fill-rule="evenodd" clip-rule="evenodd" d="M17.7949 10.8442V14.3003H19.8378C20.1618 14.3003 20.4271 14.0355 20.4271 13.7111V11.433C20.4271 11.1091 20.1622 10.8438 19.8378 10.8438H17.7949V10.8442Z" fill="black"/>
<path d="M8.58969 10.3727V7.22198C8.58969 6.96247 8.37798 6.75076 8.11847 6.75076H6.337C6.07749 6.75076 5.86578 6.53905 5.86578 6.27954V5.89661C5.86578 5.6371 6.07749 5.42539 6.337 5.42539H8.31749C8.49066 5.42539 8.63895 5.33954 8.7253 5.18979L9.71554 3.47466C9.8453 3.24979 9.76773 2.96101 9.54286 2.83125L9.1731 2.61759C8.94822 2.48783 8.65944 2.5654 8.52969 2.78979L7.93456 3.82052C7.84822 3.97027 7.69944 4.05613 7.52676 4.05613H3.29213C3.19993 4.05613 3.12139 4.07857 3.04286 4.12735L0.455052 5.73905C0.278467 5.84881 0.196516 6.05174 0.247247 6.2532L1.0253 9.36442C1.06481 9.52296 1.17213 9.64052 1.32627 9.69466C1.48042 9.74881 1.63798 9.72393 1.76774 9.62491L1.977 9.46539C2.11164 9.36296 2.17798 9.20979 2.15993 9.04101L1.91359 6.71174C1.89359 6.52247 1.98188 6.3493 2.14676 6.25418L2.45066 6.07857C2.60042 5.99222 2.77213 5.99222 2.92188 6.07857C3.07164 6.16491 3.15749 6.31369 3.15749 6.48637V13.8273C3.15749 14.0869 3.3692 14.2986 3.62871 14.2986H4.05554C4.31505 14.2986 4.52676 14.0869 4.52676 13.8273V8.59125C4.52676 8.33174 4.73847 8.12003 4.99798 8.12003H6.75017C7.00969 8.12003 7.22139 8.33174 7.22139 8.59125V10.3727C7.22139 10.6322 7.4331 10.8439 7.69261 10.8439H8.11944C8.37847 10.8439 8.58969 10.6322 8.58969 10.3727Z" fill="black"/>
<path fill-rule="evenodd" clip-rule="evenodd" d="M13.6552 7.96589C13.7869 8.03321 13.925 8.09028 14.0674 8.13711V9.2815H15.843V8.13711C15.9859 8.09077 16.1235 8.03321 16.2552 7.96589L17.0645 8.77516L18.3201 7.51955L17.5108 6.71028C17.5781 6.57858 17.6352 6.44053 17.682 6.2976H18.8264V4.52199H17.682C17.6357 4.37906 17.5781 4.2415 17.5108 4.10979L18.3201 3.30053L17.0645 2.04492L16.2552 2.85418C16.1235 2.78687 15.9854 2.72979 15.843 2.68296V1.53906H14.0674V2.68345C13.9245 2.72979 13.7869 2.78736 13.6552 2.85467L12.8459 2.0454L11.5903 3.30101L12.3996 4.11028C12.3323 4.24199 12.2752 4.38004 12.2284 4.52296H11.084V6.29857H12.2284C12.2747 6.4415 12.3323 6.57906 12.3996 6.71077L11.5903 7.52004L12.8459 8.77565L13.6552 7.96589ZM16.6435 5.41028C16.6435 6.34248 15.8879 7.09857 14.9552 7.09857C14.023 7.09857 13.2669 6.34296 13.2669 5.41028C13.2669 4.47809 14.0225 3.72199 14.9552 3.72199C15.8879 3.72199 16.6435 4.4776 16.6435 5.41028Z" fill="black"/>
<path d="M15.2228 7.08473C16.1431 6.93485 16.7676 6.06731 16.6177 5.14701C16.4679 4.22672 15.6003 3.60218 14.68 3.75206C13.7597 3.90194 13.1352 4.76948 13.2851 5.68978C13.4349 6.61007 14.3025 7.23461 15.2228 7.08473Z" fill="white"/>
<path d="M4.68759 4.05876C5.74366 4.05876 6.59978 3.20265 6.59978 2.14657C6.59978 1.09049 5.74366 0.234375 4.68759 0.234375C3.63151 0.234375 2.77539 1.09049 2.77539 2.14657C2.77539 3.20265 3.63151 4.05876 4.68759 4.05876Z" fill="black"/>
<path d="M14.5453 21.4483H1.79021C1.33607 21.4483 0.966797 21.079 0.966797 20.6249V18.3469C0.966797 17.8927 1.33607 17.5234 1.79021 17.5234H2.90826C2.96953 17.5247 3.02787 17.5499 3.07076 17.5937C3.11365 17.6375 3.13768 17.6963 3.13768 17.7576C3.13768 17.8189 3.11365 17.8777 3.07076 17.9215C3.02787 17.9653 2.96953 17.9905 2.90826 17.9917H1.79021C1.5946 17.9917 1.43509 18.1508 1.43509 18.3469V20.6249C1.43509 20.8205 1.59411 20.98 1.79021 20.98H14.5453C14.7409 20.98 14.9005 20.821 14.9005 20.6249V18.3469C14.9005 18.1512 14.7414 17.9917 14.5453 17.9917C14.4841 17.9905 14.4257 17.9653 14.3828 17.9215C14.3399 17.8777 14.3159 17.8189 14.3159 17.7576C14.3159 17.6963 14.3399 17.6375 14.3828 17.5937C14.4257 17.5499 14.4841 17.5247 14.5453 17.5234C14.9995 17.5234 15.3687 17.8927 15.3687 18.3469V20.6249C15.3683 21.079 14.999 21.4483 14.5453 21.4483Z" fill="white"/>
<path d="M3.8318 21.4509C3.70253 21.4509 3.59766 21.346 3.59766 21.2168V17.7607C3.59891 17.6994 3.62413 17.6411 3.6679 17.5982C3.71168 17.5553 3.77052 17.5313 3.8318 17.5312C3.89309 17.5313 3.95193 17.5553 3.99571 17.5982C4.03948 17.6411 4.0647 17.6994 4.06595 17.7607V21.2168C4.06595 21.346 3.96107 21.4509 3.8318 21.4509ZM12.5011 21.4509C12.3718 21.4509 12.2669 21.346 12.2669 21.2168V17.7607C12.2682 17.6994 12.2934 17.6411 12.3372 17.5982C12.3809 17.5553 12.4398 17.5313 12.5011 17.5312C12.5624 17.5313 12.6212 17.5553 12.665 17.5982C12.7087 17.6411 12.734 17.6994 12.7352 17.7607V21.2168C12.7352 21.346 12.6303 21.4509 12.5011 21.4509ZM7.1479 19.2929H5.31375C5.25248 19.2916 5.19414 19.2664 5.15125 19.2226C5.10836 19.1788 5.08434 19.12 5.08434 19.0587C5.08434 18.9974 5.10836 18.9386 5.15125 18.8948C5.19414 18.851 5.25248 18.8258 5.31375 18.8246H7.1479C7.20917 18.8258 7.26751 18.851 7.3104 18.8948C7.35329 18.9386 7.37732 18.9974 7.37732 19.0587C7.37732 19.12 7.35329 19.1788 7.3104 19.2226C7.26751 19.2664 7.20917 19.2916 7.1479 19.2929ZM11.0191 19.2929H9.18497C9.1237 19.2916 9.06536 19.2664 9.02247 19.2226C8.97958 19.1788 8.95556 19.12 8.95556 19.0587C8.95556 18.9974 8.97958 18.9386 9.02247 18.8948C9.06536 18.851 9.1237 18.8258 9.18497 18.8246H11.0191C11.0804 18.8258 11.1387 18.851 11.1816 18.8948C11.2245 18.9386 11.2485 18.9974 11.2485 19.0587C11.2485 19.12 11.2245 19.1788 11.1816 19.2226C11.1387 19.2664 11.0804 19.2916 11.0191 19.2929ZM7.1479 20.1529H5.31375C5.25248 20.1516 5.19414 20.1264 5.15125 20.0826C5.10836 20.0388 5.08434 19.98 5.08434 19.9187C5.08434 19.8574 5.10836 19.7986 5.15125 19.7548C5.19414 19.711 5.25248 19.6858 5.31375 19.6846H7.1479C7.20917 19.6858 7.26751 19.711 7.3104 19.7548C7.35329 19.7986 7.37732 19.8574 7.37732 19.9187C7.37732 19.98 7.35329 20.0388 7.3104 20.0826C7.26751 20.1264 7.20917 20.1516 7.1479 20.1529ZM11.0191 20.1529H9.18497C9.1237 20.1516 9.06536 20.1264 9.02247 20.0826C8.97958 20.0388 8.95556 19.98 8.95556 19.9187C8.95556 19.8574 8.97958 19.7986 9.02247 19.7548C9.06536 19.711 9.1237 19.6858 9.18497 19.6846H11.0191C11.0804 19.6858 11.1387 19.711 11.1816 19.7548C11.2245 19.7986 11.2485 19.8574 11.2485 19.9187C11.2485 19.98 11.2245 20.0388 11.1816 20.0826C11.1387 20.1264 11.0804 20.1516 11.0191 20.1529Z" fill="white"/>
<path d="M15.662 17.9952H2.9074C2.45325 17.9952 2.08398 17.6259 2.08398 17.1718V14.8937C2.08398 14.4396 2.45325 14.0703 2.9074 14.0703H15.6625C16.1167 14.0703 16.4859 14.4396 16.4859 14.8937V17.1718C16.4854 17.6259 16.1162 17.9952 15.662 17.9952ZM2.9074 14.5391C2.71179 14.5391 2.55228 14.6981 2.55228 14.8942V17.1723C2.55228 17.3679 2.7113 17.5274 2.9074 17.5274H15.6625C15.8581 17.5274 16.0176 17.3684 16.0176 17.1723V14.8942C16.0176 14.6986 15.8586 14.5391 15.6625 14.5391H2.9074Z" fill="white"/>
<path d="M4.95094 17.99C4.82168 17.99 4.7168 17.8851 4.7168 17.7558V14.2997C4.71805 14.2385 4.74327 14.1801 4.78704 14.1372C4.83082 14.0943 4.88966 14.0703 4.95094 14.0703C5.01223 14.0703 5.07107 14.0943 5.11485 14.1372C5.15862 14.1801 5.18384 14.2385 5.18509 14.2997V17.7558C5.18509 17.8851 5.08021 17.99 4.95094 17.99ZM13.6202 17.99C13.4909 17.99 13.3861 17.8851 13.3861 17.7558V14.2997C13.3873 14.2385 13.4125 14.1801 13.4563 14.1372C13.5001 14.0943 13.5589 14.0703 13.6202 14.0703C13.6815 14.0703 13.7403 14.0943 13.7841 14.1372C13.8279 14.1801 13.8531 14.2385 13.8544 14.2997V17.7558C13.8544 17.8851 13.75 17.99 13.6202 17.99ZM8.26753 16.6919H6.43338C6.37211 16.6907 6.31377 16.6655 6.27088 16.6217C6.22799 16.5779 6.20397 16.5191 6.20397 16.4578C6.20397 16.3965 6.22799 16.3376 6.27088 16.2939C6.31377 16.2501 6.37211 16.2249 6.43338 16.2236H8.26753C8.3288 16.2249 8.38714 16.2501 8.43003 16.2939C8.47292 16.3376 8.49694 16.3965 8.49694 16.4578C8.49694 16.5191 8.47292 16.5779 8.43003 16.6217C8.38714 16.6655 8.3288 16.6907 8.26753 16.6919ZM12.1383 16.6919H10.3041C10.2428 16.6907 10.1845 16.6655 10.1416 16.6217C10.0987 16.5779 10.0747 16.5191 10.0747 16.4578C10.0747 16.3965 10.0987 16.3376 10.1416 16.2939C10.1845 16.2501 10.2428 16.2249 10.3041 16.2236H12.1383C12.1995 16.2249 12.2579 16.2501 12.3008 16.2939C12.3437 16.3376 12.3677 16.3965 12.3677 16.4578C12.3677 16.5191 12.3437 16.5779 12.3008 16.6217C12.2579 16.6655 12.1995 16.6907 12.1383 16.6919ZM8.26753 15.8319H6.43338C6.37211 15.8307 6.31377 15.8055 6.27088 15.7617C6.22799 15.7179 6.20397 15.6591 6.20397 15.5978C6.20397 15.5365 6.22799 15.4776 6.27088 15.4339C6.31377 15.3901 6.37211 15.3649 6.43338 15.3636H8.26753C8.3288 15.3649 8.38714 15.3901 8.43003 15.4339C8.47292 15.4776 8.49694 15.5365 8.49694 15.5978C8.49694 15.6591 8.47292 15.7179 8.43003 15.7617C8.38714 15.8055 8.3288 15.8307 8.26753 15.8319ZM12.1383 15.8319H10.3041C10.2428 15.8307 10.1845 15.8055 10.1416 15.7617C10.0987 15.7179 10.0747 15.6591 10.0747 15.5978C10.0747 15.5365 10.0987 15.4776 10.1416 15.4339C10.1845 15.3901 10.2428 15.3649 10.3041 15.3636H12.1383C12.1995 15.3649 12.2579 15.3901 12.3008 15.4339C12.3437 15.4776 12.3677 15.5365 12.3677 15.5978C12.3677 15.6591 12.3437 15.7179 12.3008 15.7617C12.2579 15.8055 12.1995 15.8307 12.1383 15.8319Z" fill="white"/>
<path d="M19.8359 14.5343H15.6622C15.6009 14.533 15.5426 14.5078 15.4997 14.464C15.4568 14.4202 15.4328 14.3614 15.4328 14.3001C15.4328 14.2388 15.4568 14.18 15.4997 14.1362C15.5426 14.0924 15.6009 14.0672 15.6622 14.066H19.8359C20.0315 14.066 20.191 13.9069 20.191 13.7108V11.4328C20.191 11.2372 20.032 11.0777 19.8359 11.0777H7.08123C6.88562 11.0777 6.7261 11.2367 6.7261 11.4328V13.7108C6.7261 13.9064 6.88513 14.066 7.08123 14.066C7.1425 14.0672 7.20084 14.0924 7.24373 14.1362C7.28662 14.18 7.31064 14.2388 7.31064 14.3001C7.31064 14.3614 7.28662 14.4202 7.24373 14.464C7.20084 14.5078 7.1425 14.533 7.08123 14.5343C6.62708 14.5343 6.25781 14.165 6.25781 13.7108V11.4328C6.25781 10.9786 6.62708 10.6094 7.08123 10.6094H19.8363C20.2905 10.6094 20.6598 10.9786 20.6598 11.4328V13.7108C20.6593 14.165 20.29 14.5343 19.8359 14.5343Z" fill="white"/>
<path d="M9.12429 14.5338C8.99502 14.5338 8.89014 14.4289 8.89014 14.2996V10.8435C8.89139 10.7822 8.91661 10.7239 8.96039 10.681C9.00416 10.6381 9.063 10.6141 9.12429 10.6141C9.18557 10.6141 9.24442 10.6381 9.28819 10.681C9.33197 10.7239 9.35718 10.7822 9.35843 10.8435V14.2996C9.35843 14.4289 9.25356 14.5338 9.12429 14.5338ZM17.794 14.5338C17.6648 14.5338 17.5599 14.4289 17.5599 14.2996V10.8435C17.5611 10.7822 17.5864 10.7239 17.6301 10.681C17.6739 10.6381 17.7328 10.6141 17.794 10.6141C17.8553 10.6141 17.9142 10.6381 17.9579 10.681C18.0017 10.7239 18.0269 10.7822 18.0282 10.8435V14.2996C18.0282 14.4289 17.9233 14.5338 17.794 14.5338ZM12.4409 12.3752H10.6067C10.5455 12.374 10.4871 12.3487 10.4442 12.305C10.4013 12.2612 10.3773 12.2024 10.3773 12.1411C10.3773 12.0798 10.4013 12.0209 10.4442 11.9772C10.4871 11.9334 10.5455 11.9082 10.6067 11.9069H12.4409C12.5021 11.9082 12.5605 11.9334 12.6034 11.9772C12.6463 12.0209 12.6703 12.0798 12.6703 12.1411C12.6703 12.2024 12.6463 12.2612 12.6034 12.305C12.5605 12.3487 12.5021 12.374 12.4409 12.3752ZM16.3121 12.3752H14.4779C14.4167 12.374 14.3583 12.3487 14.3154 12.305C14.2726 12.2612 14.2485 12.2024 14.2485 12.1411C14.2485 12.0798 14.2726 12.0209 14.3154 11.9772C14.3583 11.9334 14.4167 11.9082 14.4779 11.9069H16.3121C16.3734 11.9082 16.4317 11.9334 16.4746 11.9772C16.5175 12.0209 16.5415 12.0798 16.5415 12.1411C16.5415 12.2024 16.5175 12.2612 16.4746 12.305C16.4317 12.3487 16.3734 12.374 16.3121 12.3752ZM12.4409 13.2357H10.6067C10.5455 13.2345 10.4871 13.2092 10.4442 13.1655C10.4013 13.1217 10.3773 13.0628 10.3773 13.0016C10.3773 12.9403 10.4013 12.8814 10.4442 12.8377C10.4871 12.7939 10.5455 12.7687 10.6067 12.7674H12.4409C12.5021 12.7687 12.5605 12.7939 12.6034 12.8377C12.6463 12.8814 12.6703 12.9403 12.6703 13.0016C12.6703 13.0628 12.6463 13.1217 12.6034 13.1655C12.5605 13.2092 12.5021 13.2345 12.4409 13.2357ZM16.3121 13.2357H14.4779C14.4167 13.2345 14.3583 13.2092 14.3154 13.1655C14.2726 13.1217 14.2485 13.0628 14.2485 13.0016C14.2485 12.9403 14.2726 12.8814 14.3154 12.8377C14.3583 12.7939 14.4167 12.7687 14.4779 12.7674H16.3121C16.3734 12.7687 16.4317 12.7939 16.4746 12.8377C16.5175 12.8814 16.5415 12.9403 16.5415 13.0016C16.5415 13.0628 16.5175 13.1217 16.4746 13.1655C16.4317 13.2092 16.3734 13.2345 16.3121 13.2357ZM4.05648 14.5338C3.96136 14.5338 3.8799 14.4772 3.84282 14.3957C3.82431 14.4369 3.79429 14.4718 3.75639 14.4963C3.71848 14.5208 3.6743 14.5338 3.62917 14.5338C3.24039 14.5338 2.9238 14.2172 2.9238 13.8284V6.48741C2.9238 6.39814 2.88282 6.32692 2.80526 6.28205C2.7277 6.23717 2.64575 6.23717 2.56819 6.28205L2.26429 6.45766C2.17941 6.50644 2.13697 6.59034 2.14721 6.6879L2.39356 9.01717C2.4199 9.2679 2.32039 9.49961 2.11941 9.65229L1.91014 9.8118C1.71795 9.95814 1.47697 9.99619 1.24917 9.91619C1.02136 9.83619 0.856971 9.65619 0.798434 9.42205L0.0213612 6.31034C-0.015143 6.16561 -0.00466325 6.01302 0.0512844 5.87464C0.107232 5.73627 0.205747 5.61927 0.332581 5.54058L2.92039 3.92887C3.03551 3.85717 3.15746 3.82205 3.29307 3.82205H7.52819C7.61746 3.82205 7.68868 3.78107 7.73356 3.70351L8.32868 2.67278C8.52331 2.33619 8.95502 2.22009 9.29209 2.41473L9.66185 2.62839C9.99844 2.82302 10.1145 3.25522 9.9199 3.5918L8.92965 5.30692C8.80234 5.5279 8.57404 5.65961 8.31892 5.65961H6.33843C6.2077 5.65961 6.10136 5.76595 6.10136 5.89668V6.27961C6.10136 6.41034 6.2077 6.51668 6.33843 6.51668H8.1199C8.50868 6.51668 8.82526 6.83327 8.82526 7.22205V10.3728C8.82526 10.7616 8.50868 11.0781 8.1199 11.0781C8.02478 11.0781 7.94331 11.0216 7.90624 10.9401C7.88773 10.9813 7.85771 11.0162 7.8198 11.0407C7.78189 11.0652 7.73771 11.0782 7.69258 11.0781C7.3038 11.0781 6.98722 10.7616 6.98722 10.3728V8.59131C6.98722 8.46058 6.88087 8.35424 6.75014 8.35424H4.99795C4.86721 8.35424 4.76087 8.46058 4.76087 8.59131V13.8289C4.76185 14.2172 4.44526 14.5338 4.05648 14.5338ZM2.68721 5.78107C2.80819 5.78107 2.92965 5.81278 3.0399 5.87668C3.26087 6.004 3.39258 6.23229 3.39258 6.48741V13.8284C3.39258 13.9591 3.49892 14.0655 3.62965 14.0655C3.72478 14.0655 3.80624 14.122 3.84331 14.2035C3.86182 14.1623 3.89184 14.1274 3.92975 14.1029C3.96766 14.0784 4.01184 14.0654 4.05697 14.0655C4.1877 14.0655 4.29404 13.9591 4.29404 13.8284V8.59083C4.29404 8.20205 4.61063 7.88546 4.99941 7.88546H6.75161C7.14039 7.88546 7.45697 8.20205 7.45697 8.59083V10.3723C7.45697 10.503 7.56331 10.6094 7.69404 10.6094C7.78917 10.6094 7.87063 10.6659 7.9077 10.7474C7.92621 10.7063 7.95623 10.6713 7.99414 10.6468C8.03205 10.6223 8.07623 10.6093 8.12136 10.6094C8.25209 10.6094 8.35843 10.503 8.35843 10.3723V7.22156C8.35843 7.09083 8.25209 6.98448 8.12136 6.98448H6.3399C5.95112 6.98448 5.63453 6.6679 5.63453 6.27912V5.89619C5.63453 5.50741 5.95112 5.19083 6.3399 5.19083H8.32039C8.40965 5.19083 8.48087 5.14985 8.52575 5.07229L9.516 3.35717C9.58136 3.244 9.54234 3.09863 9.42917 3.03326L9.05941 2.81961C9.00492 2.78826 8.94023 2.7798 8.87951 2.79608C8.8188 2.81235 8.76701 2.85204 8.73551 2.90644L8.14039 3.93717C8.01307 4.15814 7.78478 4.28985 7.52965 4.28985H3.29453C3.24624 4.28985 3.21014 4.30009 3.16917 4.32546L0.581361 5.93717C0.491117 5.99326 0.451117 6.09278 0.476971 6.1957L1.25502 9.30692C1.27551 9.38888 1.32673 9.44497 1.40624 9.47327C1.48624 9.50107 1.56087 9.48936 1.62819 9.43814L1.83746 9.27863C1.90673 9.22595 1.93892 9.1518 1.92965 9.06546L1.68331 6.73619C1.65356 6.45522 1.78721 6.19278 2.03209 6.05131L2.336 5.8757C2.44526 5.81278 2.56624 5.78107 2.68721 5.78107Z" fill="white"/>
<path d="M4.68736 4.29268C3.50394 4.29268 2.54102 3.32976 2.54102 2.14634C2.54102 0.962927 3.50394 0 4.68736 0C5.87077 0 6.8337 0.962927 6.8337 2.14634C6.8337 3.32976 5.87077 4.29268 4.68736 4.29268ZM4.68736 0.46878C3.76199 0.46878 3.00931 1.22146 3.00931 2.14683C3.00931 3.0722 3.76199 3.82488 4.68736 3.82488C5.61272 3.82488 6.36541 3.0722 6.36541 2.14683C6.36541 1.22146 5.61272 0.46878 4.68736 0.46878ZM14.9547 7.33561C13.8947 7.33561 13.0322 6.47317 13.0322 5.41317C13.0322 4.35317 13.8947 3.49073 14.9547 3.49073C16.0147 3.49073 16.8771 4.35317 16.8771 5.41317C16.8766 6.47317 16.0142 7.33561 14.9547 7.33561ZM14.9547 3.95951C14.1527 3.95951 13.5005 4.61171 13.5005 5.41366C13.5005 6.21561 14.1527 6.8678 14.9547 6.8678C15.7566 6.8678 16.4088 6.21561 16.4088 5.41366C16.4083 4.61171 15.7561 3.95951 14.9547 3.95951Z" fill="white"/>
<path d="M15.8423 9.51493H14.0667C13.9374 9.51493 13.8325 9.41005 13.8325 9.28079V8.30127C13.7891 8.2842 13.7457 8.26664 13.7028 8.24761L13.0101 8.9403C12.9884 8.9621 12.9626 8.9794 12.9342 8.9912C12.9057 9.00301 12.8753 9.00908 12.8445 9.00908C12.8137 9.00908 12.7832 9.00301 12.7548 8.9912C12.7264 8.9794 12.7006 8.9621 12.6789 8.9403L11.4242 7.68469C11.333 7.59347 11.333 7.44518 11.4242 7.35347L12.1169 6.66078C12.0979 6.61786 12.0803 6.57493 12.0633 6.53152H11.0838C10.9545 6.53152 10.8496 6.42664 10.8496 6.29737V4.52176C10.8496 4.39249 10.9545 4.28761 11.0838 4.28761H12.0633C12.0803 4.2442 12.0979 4.20078 12.1169 4.15835L11.4242 3.46566C11.333 3.37444 11.333 3.22615 11.4242 3.13444L12.6799 1.87883C12.7238 1.83493 12.7833 1.81005 12.8452 1.81005C12.9072 1.81005 12.9667 1.83493 13.0106 1.87883L13.7033 2.57152C13.7462 2.55249 13.7891 2.53493 13.8325 2.51786V1.53883C13.8325 1.40957 13.9374 1.30469 14.0667 1.30469H15.8423C15.9716 1.30469 16.0764 1.40957 16.0764 1.53883V2.51835C16.1199 2.53542 16.1633 2.55298 16.2057 2.572L16.8984 1.87932C16.9201 1.85752 16.9459 1.84022 16.9743 1.82842C17.0028 1.81661 17.0332 1.81054 17.064 1.81054C17.0948 1.81054 17.1252 1.81661 17.1537 1.82842C17.1821 1.84022 17.2079 1.85752 17.2296 1.87932L18.4852 3.13493C18.5291 3.17883 18.554 3.23835 18.554 3.3003C18.554 3.36225 18.5291 3.42176 18.4852 3.46566L17.7925 4.15835C17.8116 4.20127 17.8291 4.2442 17.8462 4.28761H18.8257C18.955 4.28761 19.0599 4.39249 19.0599 4.52176V6.29737C19.0599 6.42664 18.955 6.53152 18.8257 6.53152H17.8462C17.8291 6.57493 17.8116 6.61835 17.7925 6.66078L18.4852 7.35347C18.5764 7.44469 18.5764 7.59298 18.4852 7.68469L17.2296 8.9403C17.1857 8.9842 17.1262 9.00908 17.0642 9.00908C17.0023 9.00908 16.9428 8.9842 16.8989 8.9403L16.2062 8.24761C16.1633 8.26664 16.1203 8.2842 16.0769 8.30127V9.28079C16.0767 9.34291 16.0519 9.40242 16.0079 9.4463C15.964 9.49018 15.9044 9.51485 15.8423 9.51493ZM14.3013 9.04664H15.6086V8.13639C15.6086 8.08695 15.6243 8.03878 15.6534 7.99881C15.6825 7.95884 15.7235 7.92913 15.7706 7.91396C15.8999 7.872 16.0272 7.81883 16.1491 7.75688C16.2394 7.71103 16.3491 7.7281 16.4208 7.79981L17.0647 8.44371L17.9891 7.51932L17.3452 6.87542C17.3102 6.84051 17.2872 6.79539 17.2795 6.74656C17.2718 6.69773 17.2798 6.64771 17.3023 6.60371C17.3642 6.48176 17.4174 6.35444 17.4594 6.22518C17.4746 6.17821 17.5044 6.13729 17.5443 6.10829C17.5843 6.07928 17.6324 6.06367 17.6818 6.06371H18.592V4.75639H17.6818C17.5803 4.75639 17.4906 4.69103 17.4594 4.59493C17.4174 4.46566 17.3642 4.33835 17.3023 4.21639C17.2564 4.12615 17.2735 4.01639 17.3452 3.94469L17.9891 3.30078L17.0647 2.37639L16.4208 3.0203C16.3858 3.05531 16.3406 3.07833 16.2917 3.08604C16.2428 3.09375 16.1927 3.08577 16.1486 3.06322C16.0267 3.00127 15.8994 2.9481 15.7701 2.90615C15.7231 2.89089 15.6822 2.86114 15.6532 2.82118C15.6242 2.78122 15.6086 2.73309 15.6086 2.68371V1.77298H14.3013V2.68322C14.3013 2.78469 14.2359 2.87444 14.1399 2.90566C14.0106 2.94761 13.8833 3.00078 13.7613 3.06274C13.6711 3.10859 13.5613 3.09152 13.4896 3.01981L12.8457 2.37591L11.9213 3.3003L12.5652 3.9442C12.6002 3.97911 12.6232 4.02423 12.6309 4.07306C12.6387 4.12189 12.6307 4.17191 12.6081 4.21591C12.5462 4.33787 12.4936 4.46442 12.4511 4.59444C12.4358 4.64141 12.4061 4.68233 12.3661 4.71133C12.3261 4.74034 12.278 4.75594 12.2286 4.75591H11.3184V6.06322H12.2286C12.3301 6.06322 12.4199 6.12859 12.4511 6.22469C12.493 6.35396 12.5462 6.48127 12.6081 6.60322C12.654 6.69347 12.6369 6.80322 12.5652 6.87493L11.9213 7.51883L12.8457 8.44322L13.4896 7.79932C13.5246 7.76431 13.5698 7.74129 13.6187 7.73358C13.6676 7.72586 13.7177 7.73385 13.7618 7.75639C13.8833 7.81835 14.0106 7.87103 14.1403 7.91347C14.2369 7.94469 14.3018 8.03493 14.3018 8.13591V9.04664H14.3013Z" fill="white"/>
</svg>
