<svg width="24" height="24" viewBox="0 0 24 24" fill="none" xmlns="http://www.w3.org/2000/svg">
<path d="M20.5409 12.5572C20.4747 12.5311 18.8967 11.9177 17.0121 11.8044C15.2432 11.6978 13.7857 12.0661 12.7023 12.8791V23.9804C13.4911 22.7231 14.9006 22.1428 16.8965 22.2559C18.5635 22.3504 20.0125 22.9103 20.0262 22.9157C20.1328 22.9576 20.2481 22.9729 20.3619 22.9601C20.4758 22.9474 20.5848 22.907 20.6795 22.8425C20.7742 22.778 20.8517 22.6913 20.9052 22.5901C20.9588 22.4888 20.9867 22.3759 20.9867 22.2614V13.2115C20.9867 13.0703 20.9442 12.9323 20.8647 12.8156C20.7852 12.6989 20.6723 12.6089 20.5409 12.5572ZM18.6745 18.6255C18.6394 19.0123 18.2972 19.2974 17.9108 19.2624C17.1539 19.1938 16.4625 19.222 15.8559 19.3462C15.319 19.4559 15.0658 18.9926 15.026 18.7984C14.9481 18.418 15.1934 18.0464 15.5739 17.9685C16.315 17.8168 17.144 17.7809 18.0377 17.8618C18.4244 17.8969 18.7095 18.2388 18.6745 18.6255ZM18.6745 15.6089C18.6395 15.9956 18.2972 16.2807 17.9108 16.2457C17.1547 16.1772 16.4633 16.2056 15.8559 16.33C15.3189 16.4397 15.0657 15.9763 15.026 15.7821C14.9481 15.4017 15.1934 15.0302 15.5738 14.9523C16.3158 14.8004 17.1448 14.7644 18.0377 14.8452C18.4244 14.8802 18.7095 15.2221 18.6745 15.6089ZM6.98636 11.8044C5.10175 11.9177 3.52375 12.5311 3.45752 12.5572C3.32609 12.6089 3.21327 12.6989 3.13376 12.8156C3.05424 12.9323 3.01172 13.0703 3.01173 13.2115V22.2614C3.01173 22.376 3.03973 22.4888 3.09328 22.5901C3.14683 22.6914 3.22432 22.778 3.319 22.8425C3.41368 22.907 3.52269 22.9474 3.63654 22.9602C3.75039 22.9729 3.86564 22.9577 3.97225 22.9158C3.98641 22.9102 5.40653 22.358 7.07087 22.2578C9.08284 22.1367 10.5031 22.7163 11.2961 23.9805V12.8792C10.2127 12.0662 8.755 11.698 6.98636 11.8044ZM8.97245 18.7984C8.9327 18.9925 8.67948 19.4559 8.14258 19.3462C7.53597 19.2221 6.84461 19.1938 6.08767 19.2624C5.70123 19.2974 5.359 19.0123 5.32398 18.6255C5.28897 18.2388 5.57406 17.8969 5.96083 17.8618C6.85455 17.7809 7.68353 17.8168 8.42467 17.9685C8.80506 18.0464 9.05036 18.418 8.97245 18.7984ZM8.97245 15.7821C8.9327 15.9762 8.67953 16.4397 8.14258 16.3299C7.53512 16.2056 6.84372 16.1772 6.08762 16.2457C5.15659 16.2952 5.03636 14.9633 5.96078 14.8451C6.85366 14.7643 7.68259 14.8003 8.42462 14.9522C8.80506 15.0301 9.05036 15.4017 8.97245 15.7821ZM11.9992 5.95549C13.6465 5.95549 14.9867 4.61529 14.9867 2.96801C14.8365 -0.989883 9.16126 -0.988805 9.01169 2.96805C9.01173 4.61529 10.3519 5.95549 11.9992 5.95549ZM4.46795 7.83752C6.11528 7.83752 7.45544 6.49732 7.45544 4.85004C7.30525 0.892148 1.63005 0.893226 1.48047 4.85009C1.48047 6.49737 2.82062 7.83752 4.46795 7.83752ZM19.5305 7.83752C21.1778 7.83752 22.518 6.49732 22.518 4.85004C22.3678 0.892148 16.6925 0.893226 16.543 4.85009C16.543 6.49737 17.8832 7.83752 19.5305 7.83752ZM16.468 9.23421C16.468 8.10438 15.8402 7.08898 14.8298 6.58432L14.6304 6.48466C13.1686 7.64215 10.8304 7.6422 9.36855 6.48509L9.16759 6.58559C8.15776 7.09099 7.53044 8.10631 7.53044 9.23538V10.3805C8.77576 10.3763 10.4953 10.5912 11.9992 11.6524C13.5031 10.591 15.2222 10.3761 16.468 10.3804V9.23421Z" fill="black"/>
<path d="M22.3619 8.46684L22.1625 8.36719C21.0153 9.26892 19.23 9.51014 17.8635 8.91516C17.8711 9.02086 17.875 9.12745 17.875 9.23475V10.473C19.579 10.6833 20.893 11.1848 21.0563 11.249C21.8688 11.5685 22.3937 12.339 22.3937 13.212V14.9435H23.2969C23.6852 14.9435 24 14.6287 24 14.2403V11.1167C24 9.98695 23.3722 8.9715 22.3619 8.46684ZM6.12497 9.23583C6.12497 9.12816 6.12895 9.02119 6.13664 8.91511C4.77005 9.51005 2.98542 9.26902 1.83806 8.36761L1.63711 8.46811C0.627328 8.97347 0 9.98883 0 11.1179V14.2403C0 14.6287 0.314812 14.9435 0.703125 14.9435H1.60627V13.212C1.60627 12.339 2.13122 11.5685 2.94366 11.249C3.10697 11.1848 4.42097 10.6834 6.12497 10.4731V9.23583Z" fill="black"/>
</svg>
